<?xml version="1.0" encoding="UTF-8"?>
<svg width="60" height="60" viewBox="0 0 60 60" fill="none" xmlns="http://www.w3.org/2000/svg">
  <circle cx="30" cy="30" r="28" fill="#f1d2a7" opacity="0.2"/>
  <path d="M42 32c0 1.1-.9 2-2 2h-8v8c0 1.1-.9 2-2 2s-2-.9-2-2v-8h-8c-1.1 0-2-.9-2-2s.9-2 2-2h8v-8c0-1.1.9-2 2-2s2 .9 2 2v8h8c1.1 0 2 .9 2 2z" fill="#005FB8"/>
  <path d="M30 10C18.95 10 10 18.95 10 30s8.95 20 20 20 20-8.95 20-20S41.05 10 30 10zm0 36c-8.82 0-16-7.18-16-16s7.18-16 16-16 16 7.18 16 16-7.18 16-16 16z" fill="#005FB8"/>
</svg>
