<?xml version="1.0" encoding="UTF-8"?>
<svg width="60" height="60" viewBox="0 0 60 60" fill="none" xmlns="http://www.w3.org/2000/svg">
  <circle cx="30" cy="30" r="28" fill="#f1d2a7" opacity="0.2"/>
  <path d="M38 16H36V14C36 12.9 35.1 12 34 12C32.9 12 32 12.9 32 14V16H28V14C28 12.9 27.1 12 26 12C24.9 12 24 12.9 24 14V16H22C20.9 16 20 16.9 20 18V42C20 43.1 20.9 44 22 44H38C39.1 44 40 43.1 40 42V18C40 16.9 39.1 16 38 16ZM36 40H24C23.45 40 23 39.55 23 39V25H37V39C37 39.55 36.55 40 36 40Z" fill="#005FB8"/>
  <rect x="26" y="28" width="3" height="3" rx="0.5" fill="#005FB8"/>
  <rect x="31" y="28" width="3" height="3" rx="0.5" fill="#005FB8"/>
  <rect x="26" y="33" width="3" height="3" rx="0.5" fill="#005FB8"/>
  <rect x="31" y="33" width="3" height="3" rx="0.5" fill="#005FB8"/>
</svg>
