<?xml version="1.0" encoding="UTF-8"?>
<svg width="24" height="24" viewBox="0 0 24 24" fill="none" xmlns="http://www.w3.org/2000/svg">
  <path d="M12 2C6.48 2 2 6.48 2 12C2 13.7 2.43 15.3 3.18 16.7L2 22L7.3 20.82C8.7 21.57 10.3 22 12 22C17.52 22 22 17.52 22 12C22 6.48 17.52 2 12 2ZM17 15.5C16.9 15.8 16.5 16 16.1 16C15.8 16 15.5 15.9 13.8 15.1C12.3 14.4 11 13.1 10.3 11.6C9.5 9.9 9.4 9.6 9.4 9.3C9.4 8.9 9.6 8.5 9.9 8.4C10 8.3 10.1 8.3 10.2 8.3H10.8C11 8.3 11.2 8.4 11.3 8.7L11.9 10.4C12 10.6 11.9 10.9 11.8 11.1L11.2 11.9C11.1 12 11.1 12.1 11.2 12.3C11.7 13.2 12.8 14.3 13.7 14.8C13.9 14.9 14 14.9 14.1 14.8L14.9 14.2C15.1 14.1 15.4 14 15.6 14.1L17.3 14.7C17.6 14.8 17.7 15 17.7 15.2V15.5H17Z" fill="#005FB8"/>
</svg>
